G04 EAGLE Gerber RS-274X export*
G75*
%MOMM*%
%FSLAX34Y34*%
%LPD*%
%INTop Copper*%
%IPPOS*%
%AMOC8*
5,1,8,0,0,1.08239X$1,22.5*%
G01*
%ADD10R,0.800000X0.800000*%
%ADD11C,1.016000*%
%ADD12C,4.445000*%
%ADD13C,1.400000*%
%ADD14R,0.949959X1.031241*%
%ADD15R,1.031241X0.949959*%
%ADD16R,1.676400X1.676400*%
%ADD17C,1.676400*%
%ADD18C,4.016000*%
%ADD19C,1.960000*%
%ADD20R,1.524000X1.524000*%
%ADD21P,1.649562X8X292.500000*%
%ADD22R,1.288000X1.288000*%
%ADD23C,1.288000*%
%ADD24C,3.220000*%
%ADD25C,0.254000*%
%ADD26C,0.609600*%


D10*
X94100Y533400D03*
X109100Y533400D03*
X94100Y711200D03*
X109100Y711200D03*
X94100Y876300D03*
X109100Y876300D03*
D11*
X101600Y952500D03*
X1117600Y50800D03*
X127000Y50800D03*
D12*
X50800Y50800D03*
X1219200Y50800D03*
X1219200Y952500D03*
X50800Y952500D03*
D13*
X394100Y127000D03*
X419100Y127000D03*
X444100Y127000D03*
X825900Y127000D03*
X850900Y127000D03*
X875900Y127000D03*
D14*
X42799Y876300D03*
X58801Y876300D03*
D15*
X254000Y322199D03*
X254000Y338201D03*
D14*
X1074801Y304800D03*
X1058799Y304800D03*
D16*
X965200Y419100D03*
D17*
X965200Y444500D03*
X965200Y469900D03*
X965200Y495300D03*
X965200Y520700D03*
X965200Y546100D03*
X965200Y571500D03*
X965200Y596900D03*
X965200Y622300D03*
X965200Y647700D03*
X965200Y673100D03*
X965200Y698500D03*
X965200Y723900D03*
X965200Y749300D03*
X965200Y774700D03*
X965200Y800100D03*
X965200Y825500D03*
X965200Y850900D03*
X965200Y876300D03*
X965200Y901700D03*
D18*
X965200Y374650D03*
X965200Y946150D03*
X203200Y374650D03*
X203200Y946150D03*
D19*
X1192800Y279000D03*
X1192800Y229000D03*
X1067800Y229000D03*
X1067800Y279000D03*
X253000Y279000D03*
X253000Y229000D03*
X128000Y229000D03*
X128000Y279000D03*
D20*
X802900Y944200D03*
D21*
X777500Y944200D03*
X802900Y918800D03*
X777500Y918800D03*
X802900Y893400D03*
X777500Y893400D03*
X802900Y868000D03*
X777500Y868000D03*
X802900Y842600D03*
X777500Y842600D03*
X802900Y817200D03*
X777500Y817200D03*
X802900Y791800D03*
X777500Y791800D03*
X802900Y766400D03*
X777500Y766400D03*
X802900Y741000D03*
X777500Y741000D03*
X802900Y715600D03*
X777500Y715600D03*
X802900Y690200D03*
X777500Y690200D03*
X802900Y664800D03*
X777500Y664800D03*
X802900Y639400D03*
X777500Y639400D03*
X802900Y614000D03*
X777500Y614000D03*
X802900Y588600D03*
X777500Y588600D03*
X802900Y563200D03*
X777500Y563200D03*
X802900Y537800D03*
X777500Y537800D03*
X802900Y512400D03*
X777500Y512400D03*
D20*
X548900Y944200D03*
D21*
X523500Y944200D03*
X548900Y918800D03*
X523500Y918800D03*
X548900Y893400D03*
X523500Y893400D03*
X548900Y868000D03*
X523500Y868000D03*
X548900Y842600D03*
X523500Y842600D03*
X548900Y817200D03*
X523500Y817200D03*
X548900Y791800D03*
X523500Y791800D03*
X548900Y766400D03*
X523500Y766400D03*
X548900Y741000D03*
X523500Y741000D03*
X548900Y715600D03*
X523500Y715600D03*
X548900Y690200D03*
X523500Y690200D03*
X548900Y664800D03*
X523500Y664800D03*
X548900Y639400D03*
X523500Y639400D03*
X548900Y614000D03*
X523500Y614000D03*
X548900Y588600D03*
X523500Y588600D03*
X548900Y563200D03*
X523500Y563200D03*
X548900Y537800D03*
X523500Y537800D03*
X548900Y512400D03*
X523500Y512400D03*
D22*
X1054100Y863600D03*
D23*
X1079100Y863600D03*
X1099100Y863600D03*
X1124100Y863600D03*
D24*
X1023400Y890700D03*
X1154800Y890700D03*
D25*
X109100Y876300D02*
X107488Y876300D01*
X128000Y229000D02*
X127600Y228600D01*
X101600Y228600D01*
D26*
X101600Y228600D03*
D25*
X109100Y533400D02*
X127000Y533400D01*
D26*
X127000Y533400D03*
D25*
X127000Y711200D02*
X109100Y711200D01*
D26*
X127000Y711200D03*
D25*
X114300Y876300D02*
X109100Y876300D01*
X114300Y876300D02*
X127000Y863600D01*
D26*
X127000Y863600D03*
D25*
X76200Y893699D02*
X58801Y876300D01*
X76200Y893699D02*
X76200Y914400D01*
D26*
X76200Y914400D03*
D25*
X885870Y574630D02*
X965200Y495300D01*
X775306Y574630D02*
X761336Y588600D01*
X548900Y588600D01*
X775306Y574630D02*
X885870Y574630D01*
X885870Y600030D02*
X965200Y520700D01*
X775306Y600030D02*
X761336Y614000D01*
X548900Y614000D01*
X775306Y600030D02*
X885870Y600030D01*
X885870Y625430D02*
X965200Y546100D01*
X775306Y625430D02*
X761336Y639400D01*
X548900Y639400D01*
X775306Y625430D02*
X885870Y625430D01*
X960150Y483108D02*
X970250Y483108D01*
X977392Y490250D01*
X965200Y563342D02*
X965200Y571500D01*
X965200Y563342D02*
X977392Y551150D01*
X960150Y483108D02*
X894028Y549230D01*
X977392Y551150D02*
X977392Y490250D01*
X775306Y549230D02*
X761336Y563200D01*
X548900Y563200D01*
X775306Y549230D02*
X894028Y549230D01*
X825900Y127000D02*
X762000Y127000D01*
D26*
X762000Y127000D03*
X660400Y736600D03*
D25*
X664800Y741000D01*
X777500Y741000D01*
X403812Y127000D02*
X394100Y127000D01*
X459388Y127000D02*
X762000Y127000D01*
X414622Y137810D02*
X403812Y127000D01*
X448578Y137810D02*
X459388Y127000D01*
X448578Y137810D02*
X414622Y137810D01*
X911270Y650830D02*
X965200Y596900D01*
X553635Y676230D02*
X544166Y676230D01*
X532736Y664800D01*
X523500Y664800D01*
X553635Y676230D02*
X579035Y650830D01*
X911270Y650830D01*
X965200Y622300D02*
X860470Y727030D01*
X772766Y727030D01*
X761336Y715600D01*
X548900Y715600D01*
X301700Y741000D02*
X94100Y533400D01*
X301700Y741000D02*
X523500Y741000D01*
X225500Y842600D02*
X94100Y711200D01*
X225500Y842600D02*
X523500Y842600D01*
X95712Y876300D02*
X94100Y876300D01*
X95712Y876300D02*
X103522Y884110D01*
X514210Y884110D02*
X523500Y893400D01*
X514210Y884110D02*
X103522Y884110D01*
X1067800Y279000D02*
X1192800Y279000D01*
X1067800Y279000D02*
X1067800Y297799D01*
X1074801Y304800D01*
X534930Y634666D02*
X528235Y627970D01*
X534930Y650830D02*
X548900Y664800D01*
X534930Y650830D02*
X534930Y634666D01*
X528235Y627970D02*
X521306Y627970D01*
X965200Y444500D02*
X965200Y441252D01*
X254000Y360665D02*
X254000Y338201D01*
X254000Y360665D02*
X521306Y627970D01*
X989090Y374509D02*
X1058799Y304800D01*
X989090Y374509D02*
X989090Y384546D01*
X955240Y406908D02*
X953008Y409140D01*
X953008Y429060D01*
X965200Y441252D01*
X966728Y406908D02*
X989090Y384546D01*
X966728Y406908D02*
X955240Y406908D01*
X254000Y322199D02*
X253000Y323199D01*
X253000Y279400D01*
X253000Y279000D01*
X561899Y322199D02*
X777500Y537800D01*
X561899Y322199D02*
X254000Y322199D01*
X253000Y279400D02*
X252600Y279000D01*
X128000Y279000D01*
X537470Y720335D02*
X544166Y727030D01*
X537470Y720335D02*
X537470Y710866D01*
X782235Y701630D02*
X788930Y694935D01*
X788930Y685466D01*
X560330Y780370D02*
X548900Y791800D01*
X560330Y780370D02*
X560330Y736266D01*
X551095Y727030D01*
X544166Y727030D01*
X537470Y710866D02*
X546706Y701630D01*
X782235Y701630D01*
X777500Y674036D02*
X777500Y664800D01*
X777500Y674036D02*
X788930Y685466D01*
X444100Y127000D02*
X444100Y89300D01*
X457200Y76200D01*
X825100Y76200D01*
X875900Y127000D01*
X42799Y876300D02*
X42799Y944499D01*
X50800Y952500D01*
M02*
