G04 EAGLE Gerber RS-274X export*
G75*
%MOMM*%
%FSLAX34Y34*%
%LPD*%
%INBottom Copper*%
%IPPOS*%
%AMOC8*
5,1,8,0,0,1.08239X$1,22.5*%
G01*
%ADD10C,1.016000*%
%ADD11C,4.445000*%
%ADD12C,1.400000*%
%ADD13R,1.676400X1.676400*%
%ADD14C,1.676400*%
%ADD15C,4.016000*%
%ADD16C,1.960000*%
%ADD17R,1.524000X1.524000*%
%ADD18P,1.649562X8X292.500000*%
%ADD19R,1.288000X1.288000*%
%ADD20C,1.288000*%
%ADD21C,3.220000*%
%ADD22C,0.609600*%
%ADD23C,0.254000*%


D10*
X177800Y50800D03*
X1066800Y50800D03*
X139700Y952500D03*
D11*
X50800Y50800D03*
X1219200Y50800D03*
X1219200Y952500D03*
X50800Y952500D03*
D12*
X394100Y127000D03*
X419100Y127000D03*
X444100Y127000D03*
X825900Y127000D03*
X850900Y127000D03*
X875900Y127000D03*
D13*
X965200Y419100D03*
D14*
X965200Y444500D03*
X965200Y469900D03*
X965200Y495300D03*
X965200Y520700D03*
X965200Y546100D03*
X965200Y571500D03*
X965200Y596900D03*
X965200Y622300D03*
X965200Y647700D03*
X965200Y673100D03*
X965200Y698500D03*
X965200Y723900D03*
X965200Y749300D03*
X965200Y774700D03*
X965200Y800100D03*
X965200Y825500D03*
X965200Y850900D03*
X965200Y876300D03*
X965200Y901700D03*
D15*
X965200Y374650D03*
X965200Y946150D03*
X203200Y374650D03*
X203200Y946150D03*
D16*
X1192800Y279000D03*
X1192800Y229000D03*
X1067800Y229000D03*
X1067800Y279000D03*
X253000Y279000D03*
X253000Y229000D03*
X128000Y229000D03*
X128000Y279000D03*
D17*
X802900Y944200D03*
D18*
X777500Y944200D03*
X802900Y918800D03*
X777500Y918800D03*
X802900Y893400D03*
X777500Y893400D03*
X802900Y868000D03*
X777500Y868000D03*
X802900Y842600D03*
X777500Y842600D03*
X802900Y817200D03*
X777500Y817200D03*
X802900Y791800D03*
X777500Y791800D03*
X802900Y766400D03*
X777500Y766400D03*
X802900Y741000D03*
X777500Y741000D03*
X802900Y715600D03*
X777500Y715600D03*
X802900Y690200D03*
X777500Y690200D03*
X802900Y664800D03*
X777500Y664800D03*
X802900Y639400D03*
X777500Y639400D03*
X802900Y614000D03*
X777500Y614000D03*
X802900Y588600D03*
X777500Y588600D03*
X802900Y563200D03*
X777500Y563200D03*
X802900Y537800D03*
X777500Y537800D03*
X802900Y512400D03*
X777500Y512400D03*
D17*
X548900Y944200D03*
D18*
X523500Y944200D03*
X548900Y918800D03*
X523500Y918800D03*
X548900Y893400D03*
X523500Y893400D03*
X548900Y868000D03*
X523500Y868000D03*
X548900Y842600D03*
X523500Y842600D03*
X548900Y817200D03*
X523500Y817200D03*
X548900Y791800D03*
X523500Y791800D03*
X548900Y766400D03*
X523500Y766400D03*
X548900Y741000D03*
X523500Y741000D03*
X548900Y715600D03*
X523500Y715600D03*
X548900Y690200D03*
X523500Y690200D03*
X548900Y664800D03*
X523500Y664800D03*
X548900Y639400D03*
X523500Y639400D03*
X548900Y614000D03*
X523500Y614000D03*
X548900Y588600D03*
X523500Y588600D03*
X548900Y563200D03*
X523500Y563200D03*
X548900Y537800D03*
X523500Y537800D03*
X548900Y512400D03*
X523500Y512400D03*
D19*
X1054100Y863600D03*
D20*
X1079100Y863600D03*
X1099100Y863600D03*
X1124100Y863600D03*
D21*
X1023400Y890700D03*
X1154800Y890700D03*
D22*
X101600Y228600D03*
X127000Y533400D03*
X127000Y711200D03*
X127000Y863600D03*
X76200Y914400D03*
X762000Y127000D03*
D23*
X660400Y228600D01*
X660400Y736600D01*
D22*
X660400Y736600D03*
D23*
X802900Y690200D02*
X850900Y642200D01*
X850900Y127000D01*
X860850Y657650D02*
X802900Y715600D01*
X860850Y657650D02*
X863600Y654900D01*
X863600Y76200D01*
X838200Y50800D01*
X457200Y50800D02*
X419100Y88900D01*
X419100Y127000D01*
X457200Y50800D02*
X838200Y50800D01*
X960150Y838708D02*
X956258Y842600D01*
X802900Y842600D01*
X1054208Y838708D02*
X1079100Y863600D01*
X1054208Y838708D02*
X960150Y838708D01*
X956258Y817200D02*
X960150Y813308D01*
X956258Y817200D02*
X802900Y817200D01*
X1048808Y813308D02*
X1099100Y863600D01*
X1048808Y813308D02*
X960150Y813308D01*
X784650Y911650D02*
X777500Y918800D01*
X953008Y621792D02*
X953008Y617250D01*
X995142Y584200D02*
X1066800Y584200D01*
X995142Y584200D02*
X970250Y609092D01*
X961166Y609092D02*
X953008Y617250D01*
X961166Y609092D02*
X970250Y609092D01*
X1066800Y584200D02*
X1092200Y558800D01*
X1092200Y303400D02*
X1067800Y279000D01*
X953008Y621792D02*
X814330Y760470D01*
X1092200Y558800D02*
X1092200Y303400D01*
X814330Y796535D02*
X813732Y797132D01*
X814330Y796535D02*
X814330Y760470D01*
X788332Y837268D02*
X788930Y837866D01*
X788930Y907370D02*
X784650Y911650D01*
X788930Y907370D02*
X788930Y837866D01*
X788332Y837268D02*
X788332Y822532D01*
X791470Y819395D01*
X791470Y812466D01*
X798166Y805770D01*
X805095Y805770D01*
X813732Y797132D01*
X788930Y923535D02*
X782235Y930230D01*
X772766Y930230D01*
X800706Y904830D02*
X807635Y904830D01*
X800706Y904830D02*
X788930Y916606D01*
X788930Y923535D01*
X848865Y863600D02*
X1054100Y863600D01*
X848865Y863600D02*
X807635Y904830D01*
X762000Y919465D02*
X762000Y762000D01*
X782235Y752430D02*
X788930Y745735D01*
X777500Y674036D02*
X777500Y664800D01*
X777500Y674036D02*
X788930Y685466D01*
X771570Y752430D02*
X762000Y762000D01*
X771570Y752430D02*
X782235Y752430D01*
X788930Y745735D02*
X788930Y711200D01*
X788930Y710866D02*
X788930Y685466D01*
X762000Y919465D02*
X772766Y930230D01*
X788930Y711200D02*
X788930Y710866D01*
X802900Y741000D02*
X875900Y668000D01*
X875900Y127000D01*
X50800Y50800D02*
X25400Y76200D01*
X25400Y927100D02*
X50800Y952500D01*
X25400Y927100D02*
X25400Y76200D01*
X1219200Y50800D02*
X1219200Y952500D01*
X1157400Y890700D01*
X1154800Y890700D01*
X122195Y952500D02*
X50800Y952500D01*
X975096Y970040D02*
X979936Y965200D01*
X1219200Y965200D01*
X139735Y970040D02*
X122195Y952500D01*
X139735Y970040D02*
X975096Y970040D01*
X1219200Y965200D02*
X1219200Y952500D01*
X1154800Y890700D02*
X1023400Y890700D01*
M02*
