G04 EAGLE Gerber RS-274X export*
G75*
%MOMM*%
%FSLAX34Y34*%
%LPD*%
%INSoldermask Bottom*%
%IPPOS*%
%AMOC8*
5,1,8,0,0,1.08239X$1,22.5*%
G01*
%ADD10C,0.609600*%
%ADD11C,1.168400*%
%ADD12C,4.597400*%
%ADD13C,1.552400*%
%ADD14C,2.652400*%
%ADD15R,1.828800X1.828800*%
%ADD16C,1.828800*%
%ADD17C,4.168400*%
%ADD18C,2.112400*%
%ADD19R,1.676400X1.676400*%
%ADD20P,1.814519X8X292.500000*%
%ADD21R,1.440400X1.440400*%
%ADD22C,1.440400*%
%ADD23C,3.372400*%


D10*
X170180Y50800D02*
X170182Y50987D01*
X170189Y51174D01*
X170201Y51361D01*
X170217Y51547D01*
X170237Y51733D01*
X170262Y51918D01*
X170292Y52103D01*
X170326Y52287D01*
X170365Y52470D01*
X170408Y52652D01*
X170456Y52832D01*
X170508Y53012D01*
X170565Y53190D01*
X170625Y53367D01*
X170691Y53542D01*
X170760Y53716D01*
X170834Y53888D01*
X170912Y54058D01*
X170994Y54226D01*
X171080Y54392D01*
X171170Y54556D01*
X171264Y54717D01*
X171362Y54877D01*
X171464Y55033D01*
X171570Y55188D01*
X171680Y55339D01*
X171793Y55488D01*
X171910Y55634D01*
X172030Y55777D01*
X172154Y55917D01*
X172281Y56054D01*
X172412Y56188D01*
X172546Y56319D01*
X172683Y56446D01*
X172823Y56570D01*
X172966Y56690D01*
X173112Y56807D01*
X173261Y56920D01*
X173412Y57030D01*
X173567Y57136D01*
X173723Y57238D01*
X173883Y57336D01*
X174044Y57430D01*
X174208Y57520D01*
X174374Y57606D01*
X174542Y57688D01*
X174712Y57766D01*
X174884Y57840D01*
X175058Y57909D01*
X175233Y57975D01*
X175410Y58035D01*
X175588Y58092D01*
X175768Y58144D01*
X175948Y58192D01*
X176130Y58235D01*
X176313Y58274D01*
X176497Y58308D01*
X176682Y58338D01*
X176867Y58363D01*
X177053Y58383D01*
X177239Y58399D01*
X177426Y58411D01*
X177613Y58418D01*
X177800Y58420D01*
X177987Y58418D01*
X178174Y58411D01*
X178361Y58399D01*
X178547Y58383D01*
X178733Y58363D01*
X178918Y58338D01*
X179103Y58308D01*
X179287Y58274D01*
X179470Y58235D01*
X179652Y58192D01*
X179832Y58144D01*
X180012Y58092D01*
X180190Y58035D01*
X180367Y57975D01*
X180542Y57909D01*
X180716Y57840D01*
X180888Y57766D01*
X181058Y57688D01*
X181226Y57606D01*
X181392Y57520D01*
X181556Y57430D01*
X181717Y57336D01*
X181877Y57238D01*
X182033Y57136D01*
X182188Y57030D01*
X182339Y56920D01*
X182488Y56807D01*
X182634Y56690D01*
X182777Y56570D01*
X182917Y56446D01*
X183054Y56319D01*
X183188Y56188D01*
X183319Y56054D01*
X183446Y55917D01*
X183570Y55777D01*
X183690Y55634D01*
X183807Y55488D01*
X183920Y55339D01*
X184030Y55188D01*
X184136Y55033D01*
X184238Y54877D01*
X184336Y54717D01*
X184430Y54556D01*
X184520Y54392D01*
X184606Y54226D01*
X184688Y54058D01*
X184766Y53888D01*
X184840Y53716D01*
X184909Y53542D01*
X184975Y53367D01*
X185035Y53190D01*
X185092Y53012D01*
X185144Y52832D01*
X185192Y52652D01*
X185235Y52470D01*
X185274Y52287D01*
X185308Y52103D01*
X185338Y51918D01*
X185363Y51733D01*
X185383Y51547D01*
X185399Y51361D01*
X185411Y51174D01*
X185418Y50987D01*
X185420Y50800D01*
X185418Y50613D01*
X185411Y50426D01*
X185399Y50239D01*
X185383Y50053D01*
X185363Y49867D01*
X185338Y49682D01*
X185308Y49497D01*
X185274Y49313D01*
X185235Y49130D01*
X185192Y48948D01*
X185144Y48768D01*
X185092Y48588D01*
X185035Y48410D01*
X184975Y48233D01*
X184909Y48058D01*
X184840Y47884D01*
X184766Y47712D01*
X184688Y47542D01*
X184606Y47374D01*
X184520Y47208D01*
X184430Y47044D01*
X184336Y46883D01*
X184238Y46723D01*
X184136Y46567D01*
X184030Y46412D01*
X183920Y46261D01*
X183807Y46112D01*
X183690Y45966D01*
X183570Y45823D01*
X183446Y45683D01*
X183319Y45546D01*
X183188Y45412D01*
X183054Y45281D01*
X182917Y45154D01*
X182777Y45030D01*
X182634Y44910D01*
X182488Y44793D01*
X182339Y44680D01*
X182188Y44570D01*
X182033Y44464D01*
X181877Y44362D01*
X181717Y44264D01*
X181556Y44170D01*
X181392Y44080D01*
X181226Y43994D01*
X181058Y43912D01*
X180888Y43834D01*
X180716Y43760D01*
X180542Y43691D01*
X180367Y43625D01*
X180190Y43565D01*
X180012Y43508D01*
X179832Y43456D01*
X179652Y43408D01*
X179470Y43365D01*
X179287Y43326D01*
X179103Y43292D01*
X178918Y43262D01*
X178733Y43237D01*
X178547Y43217D01*
X178361Y43201D01*
X178174Y43189D01*
X177987Y43182D01*
X177800Y43180D01*
X177613Y43182D01*
X177426Y43189D01*
X177239Y43201D01*
X177053Y43217D01*
X176867Y43237D01*
X176682Y43262D01*
X176497Y43292D01*
X176313Y43326D01*
X176130Y43365D01*
X175948Y43408D01*
X175768Y43456D01*
X175588Y43508D01*
X175410Y43565D01*
X175233Y43625D01*
X175058Y43691D01*
X174884Y43760D01*
X174712Y43834D01*
X174542Y43912D01*
X174374Y43994D01*
X174208Y44080D01*
X174044Y44170D01*
X173883Y44264D01*
X173723Y44362D01*
X173567Y44464D01*
X173412Y44570D01*
X173261Y44680D01*
X173112Y44793D01*
X172966Y44910D01*
X172823Y45030D01*
X172683Y45154D01*
X172546Y45281D01*
X172412Y45412D01*
X172281Y45546D01*
X172154Y45683D01*
X172030Y45823D01*
X171910Y45966D01*
X171793Y46112D01*
X171680Y46261D01*
X171570Y46412D01*
X171464Y46567D01*
X171362Y46723D01*
X171264Y46883D01*
X171170Y47044D01*
X171080Y47208D01*
X170994Y47374D01*
X170912Y47542D01*
X170834Y47712D01*
X170760Y47884D01*
X170691Y48058D01*
X170625Y48233D01*
X170565Y48410D01*
X170508Y48588D01*
X170456Y48768D01*
X170408Y48948D01*
X170365Y49130D01*
X170326Y49313D01*
X170292Y49497D01*
X170262Y49682D01*
X170237Y49867D01*
X170217Y50053D01*
X170201Y50239D01*
X170189Y50426D01*
X170182Y50613D01*
X170180Y50800D01*
D11*
X177800Y50800D03*
D10*
X1059180Y50800D02*
X1059182Y50987D01*
X1059189Y51174D01*
X1059201Y51361D01*
X1059217Y51547D01*
X1059237Y51733D01*
X1059262Y51918D01*
X1059292Y52103D01*
X1059326Y52287D01*
X1059365Y52470D01*
X1059408Y52652D01*
X1059456Y52832D01*
X1059508Y53012D01*
X1059565Y53190D01*
X1059625Y53367D01*
X1059691Y53542D01*
X1059760Y53716D01*
X1059834Y53888D01*
X1059912Y54058D01*
X1059994Y54226D01*
X1060080Y54392D01*
X1060170Y54556D01*
X1060264Y54717D01*
X1060362Y54877D01*
X1060464Y55033D01*
X1060570Y55188D01*
X1060680Y55339D01*
X1060793Y55488D01*
X1060910Y55634D01*
X1061030Y55777D01*
X1061154Y55917D01*
X1061281Y56054D01*
X1061412Y56188D01*
X1061546Y56319D01*
X1061683Y56446D01*
X1061823Y56570D01*
X1061966Y56690D01*
X1062112Y56807D01*
X1062261Y56920D01*
X1062412Y57030D01*
X1062567Y57136D01*
X1062723Y57238D01*
X1062883Y57336D01*
X1063044Y57430D01*
X1063208Y57520D01*
X1063374Y57606D01*
X1063542Y57688D01*
X1063712Y57766D01*
X1063884Y57840D01*
X1064058Y57909D01*
X1064233Y57975D01*
X1064410Y58035D01*
X1064588Y58092D01*
X1064768Y58144D01*
X1064948Y58192D01*
X1065130Y58235D01*
X1065313Y58274D01*
X1065497Y58308D01*
X1065682Y58338D01*
X1065867Y58363D01*
X1066053Y58383D01*
X1066239Y58399D01*
X1066426Y58411D01*
X1066613Y58418D01*
X1066800Y58420D01*
X1066987Y58418D01*
X1067174Y58411D01*
X1067361Y58399D01*
X1067547Y58383D01*
X1067733Y58363D01*
X1067918Y58338D01*
X1068103Y58308D01*
X1068287Y58274D01*
X1068470Y58235D01*
X1068652Y58192D01*
X1068832Y58144D01*
X1069012Y58092D01*
X1069190Y58035D01*
X1069367Y57975D01*
X1069542Y57909D01*
X1069716Y57840D01*
X1069888Y57766D01*
X1070058Y57688D01*
X1070226Y57606D01*
X1070392Y57520D01*
X1070556Y57430D01*
X1070717Y57336D01*
X1070877Y57238D01*
X1071033Y57136D01*
X1071188Y57030D01*
X1071339Y56920D01*
X1071488Y56807D01*
X1071634Y56690D01*
X1071777Y56570D01*
X1071917Y56446D01*
X1072054Y56319D01*
X1072188Y56188D01*
X1072319Y56054D01*
X1072446Y55917D01*
X1072570Y55777D01*
X1072690Y55634D01*
X1072807Y55488D01*
X1072920Y55339D01*
X1073030Y55188D01*
X1073136Y55033D01*
X1073238Y54877D01*
X1073336Y54717D01*
X1073430Y54556D01*
X1073520Y54392D01*
X1073606Y54226D01*
X1073688Y54058D01*
X1073766Y53888D01*
X1073840Y53716D01*
X1073909Y53542D01*
X1073975Y53367D01*
X1074035Y53190D01*
X1074092Y53012D01*
X1074144Y52832D01*
X1074192Y52652D01*
X1074235Y52470D01*
X1074274Y52287D01*
X1074308Y52103D01*
X1074338Y51918D01*
X1074363Y51733D01*
X1074383Y51547D01*
X1074399Y51361D01*
X1074411Y51174D01*
X1074418Y50987D01*
X1074420Y50800D01*
X1074418Y50613D01*
X1074411Y50426D01*
X1074399Y50239D01*
X1074383Y50053D01*
X1074363Y49867D01*
X1074338Y49682D01*
X1074308Y49497D01*
X1074274Y49313D01*
X1074235Y49130D01*
X1074192Y48948D01*
X1074144Y48768D01*
X1074092Y48588D01*
X1074035Y48410D01*
X1073975Y48233D01*
X1073909Y48058D01*
X1073840Y47884D01*
X1073766Y47712D01*
X1073688Y47542D01*
X1073606Y47374D01*
X1073520Y47208D01*
X1073430Y47044D01*
X1073336Y46883D01*
X1073238Y46723D01*
X1073136Y46567D01*
X1073030Y46412D01*
X1072920Y46261D01*
X1072807Y46112D01*
X1072690Y45966D01*
X1072570Y45823D01*
X1072446Y45683D01*
X1072319Y45546D01*
X1072188Y45412D01*
X1072054Y45281D01*
X1071917Y45154D01*
X1071777Y45030D01*
X1071634Y44910D01*
X1071488Y44793D01*
X1071339Y44680D01*
X1071188Y44570D01*
X1071033Y44464D01*
X1070877Y44362D01*
X1070717Y44264D01*
X1070556Y44170D01*
X1070392Y44080D01*
X1070226Y43994D01*
X1070058Y43912D01*
X1069888Y43834D01*
X1069716Y43760D01*
X1069542Y43691D01*
X1069367Y43625D01*
X1069190Y43565D01*
X1069012Y43508D01*
X1068832Y43456D01*
X1068652Y43408D01*
X1068470Y43365D01*
X1068287Y43326D01*
X1068103Y43292D01*
X1067918Y43262D01*
X1067733Y43237D01*
X1067547Y43217D01*
X1067361Y43201D01*
X1067174Y43189D01*
X1066987Y43182D01*
X1066800Y43180D01*
X1066613Y43182D01*
X1066426Y43189D01*
X1066239Y43201D01*
X1066053Y43217D01*
X1065867Y43237D01*
X1065682Y43262D01*
X1065497Y43292D01*
X1065313Y43326D01*
X1065130Y43365D01*
X1064948Y43408D01*
X1064768Y43456D01*
X1064588Y43508D01*
X1064410Y43565D01*
X1064233Y43625D01*
X1064058Y43691D01*
X1063884Y43760D01*
X1063712Y43834D01*
X1063542Y43912D01*
X1063374Y43994D01*
X1063208Y44080D01*
X1063044Y44170D01*
X1062883Y44264D01*
X1062723Y44362D01*
X1062567Y44464D01*
X1062412Y44570D01*
X1062261Y44680D01*
X1062112Y44793D01*
X1061966Y44910D01*
X1061823Y45030D01*
X1061683Y45154D01*
X1061546Y45281D01*
X1061412Y45412D01*
X1061281Y45546D01*
X1061154Y45683D01*
X1061030Y45823D01*
X1060910Y45966D01*
X1060793Y46112D01*
X1060680Y46261D01*
X1060570Y46412D01*
X1060464Y46567D01*
X1060362Y46723D01*
X1060264Y46883D01*
X1060170Y47044D01*
X1060080Y47208D01*
X1059994Y47374D01*
X1059912Y47542D01*
X1059834Y47712D01*
X1059760Y47884D01*
X1059691Y48058D01*
X1059625Y48233D01*
X1059565Y48410D01*
X1059508Y48588D01*
X1059456Y48768D01*
X1059408Y48948D01*
X1059365Y49130D01*
X1059326Y49313D01*
X1059292Y49497D01*
X1059262Y49682D01*
X1059237Y49867D01*
X1059217Y50053D01*
X1059201Y50239D01*
X1059189Y50426D01*
X1059182Y50613D01*
X1059180Y50800D01*
D11*
X1066800Y50800D03*
D10*
X132080Y952500D02*
X132082Y952687D01*
X132089Y952874D01*
X132101Y953061D01*
X132117Y953247D01*
X132137Y953433D01*
X132162Y953618D01*
X132192Y953803D01*
X132226Y953987D01*
X132265Y954170D01*
X132308Y954352D01*
X132356Y954532D01*
X132408Y954712D01*
X132465Y954890D01*
X132525Y955067D01*
X132591Y955242D01*
X132660Y955416D01*
X132734Y955588D01*
X132812Y955758D01*
X132894Y955926D01*
X132980Y956092D01*
X133070Y956256D01*
X133164Y956417D01*
X133262Y956577D01*
X133364Y956733D01*
X133470Y956888D01*
X133580Y957039D01*
X133693Y957188D01*
X133810Y957334D01*
X133930Y957477D01*
X134054Y957617D01*
X134181Y957754D01*
X134312Y957888D01*
X134446Y958019D01*
X134583Y958146D01*
X134723Y958270D01*
X134866Y958390D01*
X135012Y958507D01*
X135161Y958620D01*
X135312Y958730D01*
X135467Y958836D01*
X135623Y958938D01*
X135783Y959036D01*
X135944Y959130D01*
X136108Y959220D01*
X136274Y959306D01*
X136442Y959388D01*
X136612Y959466D01*
X136784Y959540D01*
X136958Y959609D01*
X137133Y959675D01*
X137310Y959735D01*
X137488Y959792D01*
X137668Y959844D01*
X137848Y959892D01*
X138030Y959935D01*
X138213Y959974D01*
X138397Y960008D01*
X138582Y960038D01*
X138767Y960063D01*
X138953Y960083D01*
X139139Y960099D01*
X139326Y960111D01*
X139513Y960118D01*
X139700Y960120D01*
X139887Y960118D01*
X140074Y960111D01*
X140261Y960099D01*
X140447Y960083D01*
X140633Y960063D01*
X140818Y960038D01*
X141003Y960008D01*
X141187Y959974D01*
X141370Y959935D01*
X141552Y959892D01*
X141732Y959844D01*
X141912Y959792D01*
X142090Y959735D01*
X142267Y959675D01*
X142442Y959609D01*
X142616Y959540D01*
X142788Y959466D01*
X142958Y959388D01*
X143126Y959306D01*
X143292Y959220D01*
X143456Y959130D01*
X143617Y959036D01*
X143777Y958938D01*
X143933Y958836D01*
X144088Y958730D01*
X144239Y958620D01*
X144388Y958507D01*
X144534Y958390D01*
X144677Y958270D01*
X144817Y958146D01*
X144954Y958019D01*
X145088Y957888D01*
X145219Y957754D01*
X145346Y957617D01*
X145470Y957477D01*
X145590Y957334D01*
X145707Y957188D01*
X145820Y957039D01*
X145930Y956888D01*
X146036Y956733D01*
X146138Y956577D01*
X146236Y956417D01*
X146330Y956256D01*
X146420Y956092D01*
X146506Y955926D01*
X146588Y955758D01*
X146666Y955588D01*
X146740Y955416D01*
X146809Y955242D01*
X146875Y955067D01*
X146935Y954890D01*
X146992Y954712D01*
X147044Y954532D01*
X147092Y954352D01*
X147135Y954170D01*
X147174Y953987D01*
X147208Y953803D01*
X147238Y953618D01*
X147263Y953433D01*
X147283Y953247D01*
X147299Y953061D01*
X147311Y952874D01*
X147318Y952687D01*
X147320Y952500D01*
X147318Y952313D01*
X147311Y952126D01*
X147299Y951939D01*
X147283Y951753D01*
X147263Y951567D01*
X147238Y951382D01*
X147208Y951197D01*
X147174Y951013D01*
X147135Y950830D01*
X147092Y950648D01*
X147044Y950468D01*
X146992Y950288D01*
X146935Y950110D01*
X146875Y949933D01*
X146809Y949758D01*
X146740Y949584D01*
X146666Y949412D01*
X146588Y949242D01*
X146506Y949074D01*
X146420Y948908D01*
X146330Y948744D01*
X146236Y948583D01*
X146138Y948423D01*
X146036Y948267D01*
X145930Y948112D01*
X145820Y947961D01*
X145707Y947812D01*
X145590Y947666D01*
X145470Y947523D01*
X145346Y947383D01*
X145219Y947246D01*
X145088Y947112D01*
X144954Y946981D01*
X144817Y946854D01*
X144677Y946730D01*
X144534Y946610D01*
X144388Y946493D01*
X144239Y946380D01*
X144088Y946270D01*
X143933Y946164D01*
X143777Y946062D01*
X143617Y945964D01*
X143456Y945870D01*
X143292Y945780D01*
X143126Y945694D01*
X142958Y945612D01*
X142788Y945534D01*
X142616Y945460D01*
X142442Y945391D01*
X142267Y945325D01*
X142090Y945265D01*
X141912Y945208D01*
X141732Y945156D01*
X141552Y945108D01*
X141370Y945065D01*
X141187Y945026D01*
X141003Y944992D01*
X140818Y944962D01*
X140633Y944937D01*
X140447Y944917D01*
X140261Y944901D01*
X140074Y944889D01*
X139887Y944882D01*
X139700Y944880D01*
X139513Y944882D01*
X139326Y944889D01*
X139139Y944901D01*
X138953Y944917D01*
X138767Y944937D01*
X138582Y944962D01*
X138397Y944992D01*
X138213Y945026D01*
X138030Y945065D01*
X137848Y945108D01*
X137668Y945156D01*
X137488Y945208D01*
X137310Y945265D01*
X137133Y945325D01*
X136958Y945391D01*
X136784Y945460D01*
X136612Y945534D01*
X136442Y945612D01*
X136274Y945694D01*
X136108Y945780D01*
X135944Y945870D01*
X135783Y945964D01*
X135623Y946062D01*
X135467Y946164D01*
X135312Y946270D01*
X135161Y946380D01*
X135012Y946493D01*
X134866Y946610D01*
X134723Y946730D01*
X134583Y946854D01*
X134446Y946981D01*
X134312Y947112D01*
X134181Y947246D01*
X134054Y947383D01*
X133930Y947523D01*
X133810Y947666D01*
X133693Y947812D01*
X133580Y947961D01*
X133470Y948112D01*
X133364Y948267D01*
X133262Y948423D01*
X133164Y948583D01*
X133070Y948744D01*
X132980Y948908D01*
X132894Y949074D01*
X132812Y949242D01*
X132734Y949412D01*
X132660Y949584D01*
X132591Y949758D01*
X132525Y949933D01*
X132465Y950110D01*
X132408Y950288D01*
X132356Y950468D01*
X132308Y950648D01*
X132265Y950830D01*
X132226Y951013D01*
X132192Y951197D01*
X132162Y951382D01*
X132137Y951567D01*
X132117Y951753D01*
X132101Y951939D01*
X132089Y952126D01*
X132082Y952313D01*
X132080Y952500D01*
D11*
X139700Y952500D03*
D12*
X50800Y50800D03*
X1219200Y50800D03*
X1219200Y952500D03*
X50800Y952500D03*
D13*
X394100Y127000D03*
X419100Y127000D03*
X444100Y127000D03*
D14*
X369100Y197000D03*
X469100Y197000D03*
D13*
X825900Y127000D03*
X850900Y127000D03*
X875900Y127000D03*
D14*
X800900Y197000D03*
X900900Y197000D03*
D15*
X965200Y419100D03*
D16*
X965200Y444500D03*
X965200Y469900D03*
X965200Y495300D03*
X965200Y520700D03*
X965200Y546100D03*
X965200Y571500D03*
X965200Y596900D03*
X965200Y622300D03*
X965200Y647700D03*
X965200Y673100D03*
X965200Y698500D03*
X965200Y723900D03*
X965200Y749300D03*
X965200Y774700D03*
X965200Y800100D03*
X965200Y825500D03*
X965200Y850900D03*
X965200Y876300D03*
X965200Y901700D03*
D17*
X965200Y374650D03*
X965200Y946150D03*
X203200Y374650D03*
X203200Y946150D03*
D18*
X1192800Y279000D03*
X1192800Y229000D03*
X1067800Y229000D03*
X1067800Y279000D03*
X253000Y279000D03*
X253000Y229000D03*
X128000Y229000D03*
X128000Y279000D03*
D19*
X802900Y944200D03*
D20*
X777500Y944200D03*
X802900Y918800D03*
X777500Y918800D03*
X802900Y893400D03*
X777500Y893400D03*
X802900Y868000D03*
X777500Y868000D03*
X802900Y842600D03*
X777500Y842600D03*
X802900Y817200D03*
X777500Y817200D03*
X802900Y791800D03*
X777500Y791800D03*
X802900Y766400D03*
X777500Y766400D03*
X802900Y741000D03*
X777500Y741000D03*
X802900Y715600D03*
X777500Y715600D03*
X802900Y690200D03*
X777500Y690200D03*
X802900Y664800D03*
X777500Y664800D03*
X802900Y639400D03*
X777500Y639400D03*
X802900Y614000D03*
X777500Y614000D03*
X802900Y588600D03*
X777500Y588600D03*
X802900Y563200D03*
X777500Y563200D03*
X802900Y537800D03*
X777500Y537800D03*
X802900Y512400D03*
X777500Y512400D03*
D19*
X548900Y944200D03*
D20*
X523500Y944200D03*
X548900Y918800D03*
X523500Y918800D03*
X548900Y893400D03*
X523500Y893400D03*
X548900Y868000D03*
X523500Y868000D03*
X548900Y842600D03*
X523500Y842600D03*
X548900Y817200D03*
X523500Y817200D03*
X548900Y791800D03*
X523500Y791800D03*
X548900Y766400D03*
X523500Y766400D03*
X548900Y741000D03*
X523500Y741000D03*
X548900Y715600D03*
X523500Y715600D03*
X548900Y690200D03*
X523500Y690200D03*
X548900Y664800D03*
X523500Y664800D03*
X548900Y639400D03*
X523500Y639400D03*
X548900Y614000D03*
X523500Y614000D03*
X548900Y588600D03*
X523500Y588600D03*
X548900Y563200D03*
X523500Y563200D03*
X548900Y537800D03*
X523500Y537800D03*
X548900Y512400D03*
X523500Y512400D03*
D21*
X1054100Y863600D03*
D22*
X1079100Y863600D03*
X1099100Y863600D03*
X1124100Y863600D03*
D23*
X1023400Y890700D03*
X1154800Y890700D03*
M02*
